<?xml version="1.0" encoding="UTF-8"?>
<svg width="419px" height="58px" viewBox="0 0 419 58" version="1.1" xmlns="http://www.w3.org/2000/svg" xmlns:xlink="http://www.w3.org/1999/xlink">
    <!-- Generator: Sketch 52.6 (67491) - http://www.bohemiancoding.com/sketch -->
    <title>origin</title>
    <desc>Created with Sketch.</desc>
    <g id="Page-1" stroke="none" stroke-width="1" fill="none" fill-rule="evenodd">
        <g id="origin">
            <path d="M15.9042969,57.8321759 C12.0956841,56.7552994 9.38575024,55.0421124 7.77441406,52.6925637 C6.16307788,50.3430149 5.35742188,47.4942297 5.35742188,44.1461227 L5.35742188,38.1841725 C5.35742188,36.2457947 4.93262144,34.7381902 4.08300781,33.6613137 C3.23339419,32.5844371 1.91993076,32.0460069 0.142578125,32.0460069 L0.142578125,26.1427951 C1.91993076,26.1427951 3.23339419,25.6092598 4.08300781,24.542173 C4.93262144,23.4750863 5.35742188,21.9527973 5.35742188,19.9752604 L5.35742188,14.0133102 C5.35742188,10.6652032 6.16307788,7.82131282 7.77441406,5.48155382 C9.38575024,3.14179482 12.0956841,1.43350268 15.9042969,0.356626157 L17.5449219,4.96759259 C15.865226,5.57455936 14.6884799,6.65631456 14.0146484,8.21289063 C13.3408169,9.76946669 13.0039062,11.7029205 13.0039062,14.0133102 L13.0039062,19.9752604 C13.0039062,22.011536 12.5644575,23.8177246 11.6855469,25.3938802 C10.8066362,26.9700359 9.48829004,28.1986356 7.73046875,29.0797164 C9.48829004,29.9999564 10.8066362,31.2481354 11.6855469,32.8242911 C12.5644575,34.4004467 13.0039062,36.187056 13.0039062,38.1841725 L13.0039062,44.1461227 C13.0039062,46.4565123 13.3408169,48.3899662 14.0146484,49.9465422 C14.6884799,51.5031183 15.865226,52.5848735 17.5449219,53.1918403 L15.9042969,57.8321759 Z M400.865234,53.1918403 C402.505868,52.5848735 403.667965,51.5031183 404.351562,49.9465422 C405.03516,48.3899662 405.376953,46.4565123 405.376953,44.1461227 L405.376953,38.1841725 C405.376953,36.1478968 405.826167,34.3466031 406.724609,32.7802373 C407.623051,31.2138714 408.990225,29.9901664 410.826172,29.1090856 C408.990225,28.2280049 407.623051,26.9994051 406.724609,25.4232494 C405.826167,23.8470938 405.376953,22.0311156 405.376953,19.9752604 L405.376953,14.0133102 C405.376953,11.7029205 405.03516,9.76946669 404.351562,8.21289063 C403.667965,6.65631456 402.505868,5.57455936 400.865234,4.96759259 L402.505859,0.356626157 C406.294941,1.43350268 408.999992,3.14179482 410.621094,5.48155382 C412.242196,7.82131282 413.052734,10.6652032 413.052734,14.0133102 L413.052734,19.9752604 C413.052734,21.9527973 413.472652,23.4750863 414.3125,24.542173 C415.152348,25.6092598 416.460929,26.1427951 418.238281,26.1427951 L418.238281,32.0460069 C416.460929,32.0460069 415.152348,32.5844371 414.3125,33.6613137 C413.472652,34.7381902 413.052734,36.2457947 413.052734,38.1841725 L413.052734,44.1461227 C413.052734,47.4942297 412.242196,50.3430149 410.621094,52.6925637 C408.999992,55.0421124 406.294941,56.7552994 402.505859,57.8321759 L400.865234,53.1918403 Z" id="{-}" fill="#02AEFF"></path>
            <path d="M35.0985714,41.0038519 L35.0985714,10.5645926 C35.0985714,6.76666667 34.9871429,4.92355556 34.5971429,2.35437037 C36.8257143,2.46607407 38.2185714,2.52192593 42.8428571,2.52192593 L54.4871429,2.52192593 C61.34,2.52192593 66.8557143,4.42088889 70.5885714,8.05125926 C74.6557143,12.0725926 76.7171429,17.937037 76.7171429,25.3653333 C76.7171429,33.017037 74.4885714,39.1607407 70.2542857,43.4054815 C66.5214286,47.0917037 61.2285714,48.9906667 54.5985714,48.9906667 L42.8428571,48.9906667 C38.5528571,48.9906667 36.9928571,49.0465185 34.6528571,49.1582222 C34.9871429,46.7007407 35.0985714,44.8576296 35.0985714,41.0038519 Z M46.13,39.2165926 L53.5957143,39.2165926 C57.2171429,39.2165926 59.78,38.2671111 61.7857143,36.2564444 C64.07,33.9106667 65.2957143,30.1685926 65.2957143,25.5328889 C65.2957143,20.7854815 64.2371429,17.3226667 62.0642857,15.1444444 C60.1142857,13.1896296 57.44,12.296 53.4285714,12.296 L46.13,12.296 L46.13,39.2165926 Z M115.661429,35.0835556 L90.59,35.0835556 C91.1471429,39.6075556 93.7657143,42.0091852 98.1671429,42.0091852 C100.395714,42.0091852 102.345714,41.2831111 103.794286,39.9426667 C104.63,39.1607407 105.02,38.5463704 105.465714,37.0942222 L115.16,39.830963 C113.878571,42.7352593 113.042857,44.0198519 111.482857,45.5837037 C108.307143,48.7114074 103.85,50.3311111 98.3342857,50.3311111 C92.8742857,50.3311111 88.5842857,48.7672593 85.4085714,45.5837037 C82.1214286,42.2325926 80.3385714,37.4851852 80.3385714,31.9558519 C80.3385714,20.8971852 87.4142857,13.5805926 98.0557143,13.5805926 C106.747143,13.5805926 112.82,18.328 114.77,26.6499259 C115.215714,28.4371852 115.438571,30.782963 115.605714,33.9665185 C115.605714,34.1899259 115.605714,34.525037 115.661429,35.0835556 Z M90.7571429,27.376 L105.075714,27.376 C104.295714,23.8014815 101.9,21.9025185 98.0557143,21.9025185 C94.1,21.9025185 91.7042857,23.6897778 90.7571429,27.376 Z M117.555714,14.921037 L129.924286,14.921037 C130.035714,16.2614815 130.314286,17.4343704 130.982857,19.7242963 L136.164286,37.0942222 C136.22,37.2059259 136.275714,37.4293333 136.387143,37.7085926 C136.554286,38.2671111 136.554286,38.322963 136.832857,39.2724444 C137,38.7697778 137.055714,38.4905185 137.111429,38.2671111 C137.167143,38.1554074 137.222857,37.9878519 137.278571,37.7085926 C137.39,37.4293333 137.445714,37.2059259 137.501429,37.0383704 L142.682857,19.7242963 C143.295714,17.6577778 143.63,16.1497778 143.741429,14.921037 L156.11,14.921037 C154.995714,17.4343704 154.55,18.4955556 153.825714,20.3386667 L144.465714,44.2991111 C143.518571,46.7007407 143.24,47.5943704 142.961429,48.9906667 L130.76,48.9906667 C130.481429,47.5943704 130.202857,46.7007407 129.255714,44.2991111 L119.895714,20.3386667 C119.561429,19.5567407 118.781429,17.7694815 117.555714,14.921037 Z M201.127143,16.4848889 L189.65,18.718963 C188.591429,13.6364444 185.638571,11.1231111 180.847143,11.1231111 C174.05,11.1231111 170.094286,16.4848889 170.094286,25.7004444 C170.094286,34.8042963 174.217143,40.3336296 181.125714,40.3336296 C184.19,40.3336296 186.808571,39.049037 188.424286,36.814963 C189.371429,35.4745185 189.761429,34.3574815 190.095714,32.0117037 L201.684286,33.7431111 C200.625714,38.4905185 199.4,41.2272593 197.06,43.964 C193.605714,47.9294815 188.201429,50.0518519 181.46,50.0518519 C174.662857,50.0518519 168.924286,47.9294815 164.968571,43.9081481 C160.845714,39.7192593 158.505714,33.1845926 158.505714,25.7004444 C158.505714,18.1045926 160.845714,11.6816296 165.247143,7.32518519 C169.091429,3.58311111 174.718571,1.51659259 181.237143,1.51659259 C188.424286,1.51659259 194.051429,3.97407407 197.672857,8.83318519 C199.455714,11.1231111 200.402857,13.1896296 201.127143,16.4848889 Z M223.357143,50.2752593 C212.158571,50.2752593 205.027143,43.1262222 205.027143,31.9 C205.027143,20.7296296 212.158571,13.6364444 223.412857,13.6364444 C234.667143,13.6364444 241.798571,20.7296296 241.798571,31.7882963 C241.798571,42.9028148 234.444286,50.2752593 223.357143,50.2752593 Z M223.468571,22.0142222 C218.565714,22.0142222 215.668571,25.7004444 215.668571,31.8441481 C215.668571,38.0437037 218.565714,41.7857778 223.412857,41.7857778 C228.26,41.7857778 231.045714,38.1554074 231.045714,31.9558519 C231.045714,25.7004444 228.204286,22.0142222 223.468571,22.0142222 Z M269.822857,14.921037 L281.355714,14.921037 C281.021429,17.5460741 280.91,19.8918519 280.91,23.2988148 L280.91,40.557037 C280.91,44.4108148 281.021429,46.7007407 281.355714,48.9348148 L270.268571,48.9348148 L270.268571,46.5331852 C270.268571,46.2539259 270.268571,45.4161481 270.324286,45.0251852 C266.647143,48.488 263.471429,49.8284444 258.735714,49.8284444 C255.002857,49.8284444 251.994286,48.7672593 249.877143,46.7007407 C247.648571,44.4666667 246.701429,41.7299259 246.701429,37.3176296 L246.701429,23.2988148 C246.701429,20.0594074 246.534286,17.2668148 246.255714,14.921037 L257.844286,14.921037 C257.51,17.6019259 257.398571,19.9477037 257.398571,23.2988148 L257.398571,34.7484444 C257.398571,37.0383704 257.621429,38.0437037 258.29,38.9373333 C259.07,39.9426667 260.295714,40.5011852 261.911429,40.5011852 C264.975714,40.5011852 268.095714,38.322963 270.268571,34.7484444 L270.268571,23.2988148 C270.268571,20.1711111 270.157143,17.8253333 269.822857,14.921037 Z M314.951429,14.921037 L312.277143,24.9743704 C309.714286,24.1924444 308.321429,23.9131852 306.594286,23.9131852 C303.752857,23.9131852 301.58,24.9185185 299.964286,26.9291852 C298.905714,28.2696296 298.515714,29.4425185 298.292857,31.9 L298.292857,40.6128889 C298.292857,44.1874074 298.404286,46.3097778 298.738571,48.9906667 L287.205714,48.9906667 C287.54,46.1980741 287.651429,44.1874074 287.651429,40.557037 L287.651429,23.3546667 C287.651429,19.2774815 287.54,17.3226667 287.205714,14.921037 L298.292857,14.921037 L298.292857,19.3333333 C301.022857,15.7588148 304.365714,14.2508148 309.435714,14.2508148 C311.218571,14.2508148 312.332857,14.3625185 314.951429,14.921037 Z M317.012857,38.8256296 L328.044286,37.5968889 C328.601429,40.5011852 330.495714,41.7857778 334.228571,41.7857778 C337.571429,41.7857778 339.465714,40.8362963 339.465714,39.1048889 C339.465714,38.2671111 339.02,37.541037 338.24,37.0942222 C337.46,36.6474074 336.735714,36.424 333.671429,35.8096296 C329.437143,34.9718519 327.264286,34.4133333 325.425714,33.798963 C322.751429,32.7936296 320.912857,31.509037 319.854286,29.8334815 C318.962857,28.3254815 318.461429,26.4265185 318.461429,24.5275556 C318.461429,17.8253333 324.088571,13.7481481 333.392857,13.7481481 C338.685714,13.7481481 342.641429,14.921037 345.26,17.3226667 C347.098571,18.9423704 347.99,20.5620741 348.881429,23.6897778 L338.128571,24.8626667 C337.85,22.5727407 336.457143,21.5674074 333.448571,21.5674074 C330.551429,21.5674074 328.768571,22.5168889 328.768571,23.969037 C328.768571,25.477037 329.938571,26.0355556 335.454286,27.2642963 C340.914286,28.4371852 342.641429,28.9398519 344.591429,29.9451852 C348.212857,31.7324444 349.94,34.4691852 349.94,38.4905185 C349.94,41.4506667 348.937143,44.1315556 347.098571,45.9188148 C344.424286,48.5997037 339.855714,49.996 333.894286,49.996 C326.874286,49.996 321.915714,48.097037 319.241429,44.4108148 C318.127143,42.846963 317.57,41.5065185 317.012857,38.8256296 Z M388.605714,35.0835556 L363.534286,35.0835556 C364.091429,39.6075556 366.71,42.0091852 371.111429,42.0091852 C373.34,42.0091852 375.29,41.2831111 376.738571,39.9426667 C377.574286,39.1607407 377.964286,38.5463704 378.41,37.0942222 L388.104286,39.830963 C386.822857,42.7352593 385.987143,44.0198519 384.427143,45.5837037 C381.251429,48.7114074 376.794286,50.3311111 371.278571,50.3311111 C365.818571,50.3311111 361.528571,48.7672593 358.352857,45.5837037 C355.065714,42.2325926 353.282857,37.4851852 353.282857,31.9558519 C353.282857,20.8971852 360.358571,13.5805926 371,13.5805926 C379.691429,13.5805926 385.764286,18.328 387.714286,26.6499259 C388.16,28.4371852 388.382857,30.782963 388.55,33.9665185 C388.55,34.1899259 388.55,34.525037 388.605714,35.0835556 Z M363.701429,27.376 L378.02,27.376 C377.24,23.8014815 374.844286,21.9025185 371,21.9025185 C367.044286,21.9025185 364.648571,23.6897778 363.701429,27.376 Z" id="DevCourse" fill="#FFFFFF"></path>
        </g>
    </g>
</svg>