<?xml version="1.0" encoding="UTF-8"?>
<svg width="20px" height="16px" viewBox="0 0 20 16" version="1.1" xmlns="http://www.w3.org/2000/svg" xmlns:xlink="http://www.w3.org/1999/xlink">
    <title>Quote Icon</title>
    <g id="Page-1" stroke="none" stroke-width="1" fill="none" fill-rule="evenodd">
        <path d="M19.2093023,0 L19.2093023,1.17365269 C17.5968912,1.78044216 16.3333379,2.73452443 15.4186047,4.03592814 C14.5038714,5.33733186 14.0465116,6.69061174 14.0465116,8.09580838 C14.0465116,8.39920311 14.0930228,8.62275377 14.1860465,8.76646707 C14.2480623,8.86227593 14.3178291,8.91017964 14.3953488,8.91017964 C14.4728686,8.91017964 14.5891465,8.85429198 14.744186,8.74251497 C15.2403126,8.37524766 15.8682133,8.19161677 16.627907,8.19161677 C17.5116323,8.19161677 18.2945702,8.56287054 18.9767442,9.30538922 C19.6589181,10.0479079 20,10.9301346 20,11.9520958 C20,13.0219614 19.608531,13.9640678 18.8255814,14.7784431 C18.0426317,15.5928184 17.0930288,16 15.9767442,16 C14.6744121,16 13.5503923,15.4491073 12.6046512,14.3473054 C11.65891,13.2455035 11.1860465,11.7684723 11.1860465,9.91616766 C11.1860465,7.76046826 11.8294509,5.82835186 13.1162791,4.11976048 C14.4031072,2.4111691 16.4340947,1.03792934 19.2093023,0 Z M8.02325581,0 L8.02325581,1.17365269 C6.41084465,1.78044216 5.1472914,2.73452443 4.23255814,4.03592814 C3.31782488,5.33733186 2.86046512,6.69061174 2.86046512,8.09580838 C2.86046512,8.39920311 2.90697628,8.62275377 3,8.76646707 C3.06201581,8.86227593 3.13178256,8.91017964 3.20930233,8.91017964 C3.28682209,8.91017964 3.4031,8.85429198 3.55813953,8.74251497 C4.05426605,8.37524766 4.68216674,8.19161677 5.44186047,8.19161677 C6.32558581,8.19161677 7.10852372,8.56287054 7.79069767,9.30538922 C8.47287163,10.0479079 8.81395349,10.9301346 8.81395349,11.9520958 C8.81395349,13.0219614 8.42248453,13.9640678 7.63953488,14.7784431 C6.85658523,15.5928184 5.90698233,16 4.79069767,16 C3.48836558,16 2.36434581,15.4491073 1.41860465,14.3473054 C0.472863488,13.2455035 0,11.7684723 0,9.91616766 C0,7.76046826 0.643404419,5.82835186 1.93023256,4.11976048 C3.2170607,2.4111691 5.24804814,1.03792934 8.02325581,0 Z" id="Quote-Icon" fill="#2E3543"></path>
    </g>
</svg>